<svg xmlns="http://www.w3.org/2000/svg" width="242.9292" height="270.6674" viewBox="0 0 242.9292 270.6674"><defs><style>.a{fill:#e83f44;}.b{fill:none;}.c{fill:#fff;}</style></defs><title>AT_logo</title><path class="a" d="M3.9881,88.6647v103.52a31.8134,31.8134,0,0,0,15.9067,27.5513l89.6511,51.76a31.8137,31.8137,0,0,0,31.8135,0l89.6511-51.76a31.8135,31.8135,0,0,0,15.9068-27.5513V88.6647a31.8137,31.8137,0,0,0-15.9068-27.5513l-89.6511-51.76a31.8137,31.8137,0,0,0-31.8135,0l-89.6511,51.76A31.8136,31.8136,0,0,0,3.9881,88.6647Z" transform="translate(-3.9881 -5.0911)"/><polygon class="b" points="61.398 151.872 104.44 151.872 104.272 151.442 61.566 151.442 61.398 151.872"/><path class="b" d="M92.1174,115.05a5.5851,5.5851,0,0,0-10.4093-.0011l-8.7776,22.5408a3.7308,3.7308,0,0,0,3.4765,5.0845H97.412a3.7308,3.7308,0,0,0,3.4768-5.0838Z" transform="translate(-3.9881 -5.0911)"/><path class="c" d="M156.7118,204.823,139.23,159.8992a5.2,5.2,0,0,0-4.9212-3.3132l-25.8809.3769H65.3864l-17.2091-.3546a5.1994,5.1994,0,0,0-4.9522,3.3116L25.74,204.8218a5.5851,5.5851,0,0,0,5.2044,7.6118h9.0214a5.5851,5.5851,0,0,0,5.2043-3.5582L56.8132,178.98a5.5849,5.5849,0,0,1,5.2043-3.5582h49.7749a5.5852,5.5852,0,0,1,5.2048,3.5594l11.6344,29.8933a5.5853,5.5853,0,0,0,5.2049,3.5594h17.67A5.5851,5.5851,0,0,0,156.7118,204.823Z" transform="translate(-3.9881 -5.0911)"/><path class="c" d="M81.7081,115.0486a5.5851,5.5851,0,0,1,10.4093.0011l9.8244,25.2464a3.7309,3.7309,0,0,0,3.4769,2.3778h21.6526a3.7308,3.7308,0,0,0,3.4768-5.0838L107.0924,77.3156a5.5852,5.5852,0,0,0-5.2049-3.56h-21.29a5.5853,5.5853,0,0,0-5.2044,3.5584L51.9209,137.5893a3.7308,3.7308,0,0,0,3.4766,5.0846H68.4a3.7308,3.7308,0,0,0,3.4765-2.377Z" transform="translate(-3.9881 -5.0911)"/><path d="M55.2979,144.4028" transform="translate(-3.9881 -5.0911)"/><path class="c" d="M122.8486,78.4932l4.1867,11.1474a3.8,3.8,0,0,0,3.5572,2.4637H149.439a3.8,3.8,0,0,1,3.8,3.82l-.3246,60.9462a3.8011,3.8011,0,0,0,.2623,1.4075l20.07,51.18a3.8,3.8,0,0,0,3.6838,2.41l1.5351-.0591a3.8,3.8,0,0,0,3.6534-3.797V95.9041a3.8,3.8,0,0,1,3.8-3.8H227.981a3.8,3.8,0,0,0,3.8-3.8V76.8023a3.8,3.8,0,0,0-3.813-3.8l-101.5753.3548A3.8,3.8,0,0,0,122.8486,78.4932Z" transform="translate(-3.9881 -5.0911)"/><path class="c" d="M62.8618,179.8711a1.3854,1.3854,0,1,1-.4053-.9727A1.3284,1.3284,0,0,1,62.8618,179.8711Zm-.1953,0a1.1894,1.1894,0,1,0-.3481.835A1.1386,1.1386,0,0,0,62.6665,179.8711Zm-.7969.24.2285.0489a.6245.6245,0,0,1-.6406.5449.5986.5986,0,0,1-.5171-.251.9972.9972,0,0,1-.18-.5986.8666.8666,0,0,1,.1948-.5938.6546.6546,0,0,1,.518-.2226.5989.5989,0,0,1,.625.5273l-.2363.043q-.1018-.3795-.3965-.3789a.3682.3682,0,0,0-.32.1709.8447.8447,0,0,0-.1177.4824.7876.7876,0,0,0,.1187.4541.3685.3685,0,0,0,.3169.1719Q61.7813,180.51,61.87,180.1113Z" transform="translate(-3.9881 -5.0911)"/><path class="c" d="M66.479,181.2129h-.3408l-.2681-.7793h-.99l-.2383.7793h-.2793l.8662-2.666h.3779Zm-.68-1.0293-.4131-1.2813-.4126,1.2813Z" transform="translate(-3.9881 -5.0911)"/><path class="c" d="M67.2656,181.2129H66.959v-2.666h.3066Z" transform="translate(-3.9881 -5.0911)"/><path class="c" d="M68.3555,178.5469v.3418h-.33v-.3418Zm-.01.6933v1.9727h-.3066V179.24Z" transform="translate(-3.9881 -5.0911)"/><path class="c" d="M71.1089,181.2129h-.334V178.84h-.7637v-.2929h1.8633v.2929h-.7656Z" transform="translate(-3.9881 -5.0911)"/><path class="c" d="M73.6577,181.2129H73.355c-.0117-.0625-.0235-.1807-.0352-.3555a.71.71,0,0,1-.6914.41.6947.6947,0,0,1-.51-.1758.5737.5737,0,0,1-.1778-.4229.5933.5933,0,0,1,.2539-.4921,1.4693,1.4693,0,0,1,.8633-.1924c.0547,0,.1421.0029.2617.0078a1.141,1.141,0,0,0-.0361-.3389.3035.3035,0,0,0-.1533-.167.6527.6527,0,0,0-.3086-.0625q-.4666,0-.543.3555l-.2832-.0488q.1034-.545.8711-.545a.7744.7744,0,0,1,.5791.1807.9049.9049,0,0,1,.1709.626v.8379A1.67,1.67,0,0,0,73.6577,181.2129Zm-.3379-.9863c-.125-.0078-.22-.0118-.2851-.0118a1.1173,1.1173,0,0,0-.5645.1192.3829.3829,0,0,0-.2012.3486.3277.3277,0,0,0,.1084.2471.4435.4435,0,0,0,.3135.1016.5838.5838,0,0,0,.4561-.2012.694.694,0,0,0,.1787-.4746Q73.3257,180.3012,73.32,180.2266Z" transform="translate(-3.9881 -5.0911)"/><path class="c" d="M74.6963,179.2188v2.0546a.6018.6018,0,0,1-.165.4844.6134.6134,0,0,1-.4034.1367,1.2574,1.2574,0,0,1-.2871-.041v-.2422a1.01,1.01,0,0,0,.2246.0293.3216.3216,0,0,0,.2491-.083.4255.4255,0,0,0,.0751-.2861v-2.0527Zm.0156-.6719v.3418h-.3476v-.3418Z" transform="translate(-3.9881 -5.0911)"/><path class="c" d="M77.0088,181.2129h-.3027c-.0118-.0625-.0235-.1807-.0352-.3555a.71.71,0,0,1-.6914.41.6951.6951,0,0,1-.51-.1758.574.574,0,0,1-.1777-.4229.5933.5933,0,0,1,.2539-.4921,1.4688,1.4688,0,0,1,.8633-.1924c.0547,0,.1421.0029.2617.0078a1.141,1.141,0,0,0-.0361-.3389.3037.3037,0,0,0-.1534-.167.652.652,0,0,0-.3085-.0625q-.4666,0-.543.3555l-.2832-.0488q.1032-.545.8711-.545a.7746.7746,0,0,1,.5791.1807.9054.9054,0,0,1,.1709.626v.8379A1.6644,1.6644,0,0,0,77.0088,181.2129Zm-.3379-.9863q-.1875-.0117-.2852-.0118a1.1171,1.1171,0,0,0-.5644.1192.3829.3829,0,0,0-.2012.3486.3277.3277,0,0,0,.1084.2471.4435.4435,0,0,0,.3135.1016.5834.5834,0,0,0,.456-.2012.6936.6936,0,0,0,.1788-.4746Q76.6768,180.3012,76.6709,180.2266Z" transform="translate(-3.9881 -5.0911)"/><path class="c" d="M78.0479,181.2129h-.3067V179.24h.2695v.461a.99.99,0,0,1,.2862-.4229.5211.5211,0,0,1,.2939-.0967c.0313,0,.0718.003.1211.0079v.2929h-.0625a.5408.5408,0,0,0-.4219.1895.7687.7687,0,0,0-.18.498Z" transform="translate(-3.9881 -5.0911)"/><path class="c" d="M79.5356,178.5469v.3418h-.33v-.3418Zm-.01.6933v1.9727h-.3067V179.24Z" transform="translate(-3.9881 -5.0911)"/></svg>